<svg width="411" height="40" viewBox="0 0 411 40" fill="none" xmlns="http://www.w3.org/2000/svg">
<path d="M411 40C411 40 408.58 35.8684 407.75 27.7171C406.92 19.5659 399.18 20.4105 399.18 20.4105C399.18 20.4105 395.04 15.0679 392 6.07199C388.959 -2.92392 378.469 1.85897 378.469 1.85897C364.379 -5.1729 361.879 10.0102 361.879 10.0102C350.269 4.66765 334.798 16.1975 334.798 16.1975C333.138 9.45054 320.998 12.5543 320.998 12.5543C304.637 -1.65188 294.787 20.8175 294.787 20.8175C280.207 15.5767 275.057 30.8514 275.057 30.8514C275.057 30.8514 268.197 42.6357 263.046 33.4668C257.896 24.2979 245.466 30.5156 245.466 30.5156L238.556 17.0421C232.796 9.43019 222.295 11.0584 219.725 11.5978C219.335 11.6792 218.925 11.6079 218.575 11.4349C207.315 5.78705 199.665 14.6201 196.895 18.7009C196.275 19.6066 195.025 19.749 194.225 19.0163C186.155 11.5367 176.804 17.1541 173.564 19.5455C172.914 20.0238 172.024 20.0034 171.404 19.4844C167.914 16.5129 164.024 18.711 162.414 19.8711C161.944 20.2171 161.344 20.2884 160.784 20.1256C159.334 19.7083 158.304 20.2782 157.704 20.8175C157.244 21.2246 156.624 21.4281 156.034 21.2653C148.564 19.1893 143.233 22.2829 140.473 24.6235C139.523 25.4274 138.063 25.0814 137.633 23.901C136.653 21.1737 134.323 17.3983 128.863 16.5536C124.613 15.8922 118.883 17.7341 116.913 18.4363C116.503 18.5787 116.053 18.5787 115.653 18.3956C112.573 17.0116 109.933 19.7185 108.763 21.2348C108.353 21.7741 107.663 22.0082 107.013 21.8657C102.892 20.9702 99.6524 22.2829 97.3024 24.0536C95.0623 25.7429 91.8822 25.3664 90.0922 23.1886C88.9622 21.825 87.3521 20.5733 85.0621 19.8203C79.4219 17.9885 75.4718 22.2321 74.0318 24.135C73.6518 24.6337 73.0318 24.8983 72.4118 24.8169C67.0116 24.0842 63.5815 27.4729 62.1615 29.2945C61.7115 29.8643 60.9615 30.0984 60.2715 29.905C58.9114 29.5082 57.7814 29.8542 56.9814 30.3019C56.1714 30.7497 55.1513 30.4444 54.6613 29.6506L54.0113 28.6126C53.2213 27.361 52.2213 26.2314 50.9812 25.4376C46.7211 22.7104 42.781 24.9084 40.921 26.3433C40.241 26.8623 39.471 26.557 38.6509 26.323C38.6509 26.323 34.4508 17.0523 23.6206 19.9831C23.6206 19.9831 11.2903 9.74566 8.58021 25.6615C8.58021 25.6615 0 27.5441 0 39.9898H411V40Z" fill="#EDF1FF"/>
</svg>
