<svg width="103" height="231" viewBox="0 0 103 231" fill="none" xmlns="http://www.w3.org/2000/svg">
<g clip-path="url(#clip0)">
<path d="M35.7856 157.238C38.8988 172.031 44.3016 198.144 46.4193 198.533C52.7543 203.407 52.0846 210.179 50.4194 217.503C58.0214 232.205 35.1702 227.07 35.1702 225.261L34.4552 225.035C33.9484 226.753 32.8624 227.44 30.3013 224.004C29.532 215.993 33.514 209.148 31.4687 201.237C29.3329 192.502 6.04726 170.729 3.01551 128.973C3.01551 128.973 1.75757 124.832 8.53601 122.96C16.6358 116.369 29.2424 119.678 38.5911 125.465C35.6136 117.164 31.2244 100.075 30.7628 91.1323C25.2695 84.9657 18.5001 74.9201 19.9119 65.426C22.9074 58.6535 34.8715 49.7562 41.3151 46.6186C41.5957 47.785 43.5595 55.4526 46.4103 55.4979C43.3785 61.4204 43.4328 66.8275 52.166 68.7353L54.5733 68.8619C54.0846 80.8426 50.1298 100.635 51.4602 102.724L52.2385 103.592C54.9082 101.368 57.8313 99.3334 60.7545 97.3623C63.207 96.4762 67.5329 97.1634 73.1168 95.7076L72.5828 93.42C73.1439 80.7612 67.008 70.9325 66.7546 62.9032C69.171 59.5306 67.5058 55.5702 64.5374 52.4869L66.3021 52.1433C66.3021 51.7183 67.7411 47.0707 68.2388 41.7179C89.5787 43.7433 108.24 52.4417 98.0676 74.8296C95.0087 84.9476 102.43 102.589 94.8006 109.497C90.8367 110.916 87.5425 111.359 84.746 111.359L84.737 111.875C84.7551 119.768 94.2938 124.796 89.2529 147.618C89.3796 160.132 82.3206 162.356 86.6194 185.449C87.3434 195.233 87.0357 204.664 83.6329 213.516C78.4563 218.959 59.7409 220.722 58.9807 216.129C57.5236 209.917 71.1891 199.944 69.6235 193.325C66.9266 189.292 69.3972 181.263 69.1076 178.975C65.7501 173.306 63.8948 164.011 62.7817 154.381L62.3021 154.435C48.2927 158.667 36.2833 157.139 36.2833 157.139L35.7856 157.238Z" fill="white"/>
<path d="M46.4102 55.4979C43.5594 55.4527 41.5956 47.7851 41.315 46.6186C33.9483 28.0374 39.8218 23.1818 64.9084 27.3502C66.0396 28.4442 66.836 29.8096 67.379 31.3377C68.275 33.8152 68.5012 36.7086 68.3926 39.5569C68.3655 40.2893 68.3112 41.0126 68.2478 41.7269C67.7501 47.0798 66.3111 51.7183 66.3111 52.1523L64.5464 52.4959C67.5238 55.5793 69.18 59.5397 66.7636 62.9123C67.017 70.9416 73.1529 80.7702 72.5918 93.429L73.1258 95.7167C67.5329 97.1724 63.207 96.4852 60.7635 97.3713C57.8313 99.3425 54.9081 101.377 52.2474 103.601L51.4691 102.733C50.1478 100.645 54.0936 80.8516 54.5823 68.871L52.175 68.7444C43.4327 66.8275 43.3784 61.4294 46.4102 55.4979Z" fill="white"/>
<path d="M67.5329 31.2834C72.6009 28.1187 70.9538 38.6346 68.3926 39.5569C68.5103 36.7177 68.275 33.8152 67.379 31.3377L67.5329 31.2834Z" fill="white"/>
<path d="M36.3605 14.3904C36.3605 14.3904 36.178 5.86446 38.6166 4.52087C41.0551 3.17728 42.3656 2.49719 42.3656 2.49719C42.3656 2.49719 45.8161 1.21996 46.264 1.18678C46.7119 1.15361 50.6932 0.0920049 52.6507 0.423755C54.6082 0.755505 62.0897 1.18678 62.7865 1.71758C63.4832 2.24838 65.9549 4.10618 66.2701 6.6109C66.7678 10.5919 67.6304 11.2222 68.6423 12.1511C69.6542 13.08 75.3276 15.9828 75.3276 15.9828C75.3276 15.9828 76.2732 16.7127 75.4769 18.6037C74.6806 20.4946 70.832 22.1202 70.832 22.1202L60.9783 25.2718C60.9783 25.2718 54.1271 26.8974 49.7145 26.9969C45.3018 27.0965 41.9343 26.6818 40.4579 26.1012C38.9815 25.5207 34.3864 26.4827 29.725 23.3311C25.0469 20.1629 35.4481 15.1203 35.4481 15.1203L36.3605 14.3904Z" stroke="black" stroke-width="0.5" stroke-miterlimit="10"/>
<path d="M36.3605 14.3905C36.3605 14.3905 39.2303 16.298 41.3537 16.5468C43.4937 16.7956 50.5605 18.4212 63.3007 13.7601C63.3007 13.7601 66.154 12.7483 67.2488 10.5919" stroke="black" stroke-width="0.5" stroke-miterlimit="10"/>
<path d="M38.2185 4.83606C38.2185 4.83606 37.4056 5.83131 39.3133 6.52799C41.2376 7.22466 43.8752 5.99719 48.1551 6.59434C48.1551 6.59434 53.1152 6.6441 56.2007 5.8479C59.2863 5.0517 62.2059 4.22232 62.2059 4.22232C62.2059 4.22232 64.2795 2.91191 61.8741 1.45221" stroke="black" stroke-width="0.5" stroke-miterlimit="10"/>
<path d="M50.5681 6.16451C56.8119 5.5307 61.7595 3.89383 61.6188 2.50846C61.4782 1.12308 56.3026 0.513815 50.0588 1.14762C43.815 1.78143 38.8674 3.4183 39.0081 4.80367C39.1487 6.18904 44.3243 6.79831 50.5681 6.16451Z" fill="#C3CDE9"/>
<path d="M35.7634 15.6179C36.1947 15.2862 36.4104 15.1701 36.8749 15.4355C37.837 15.9828 39.5788 16.7127 40.9391 16.9947C45.1195 17.8738 50.3615 17.9733 57.4616 16.3478C61.5756 15.4023 65.6067 13.1796 67.4978 11.9853C67.9291 11.7033 68.2775 12.5161 68.5926 12.9142L74.83 16.5634C75.4272 17.3098 77.0695 20.1629 60.0162 24.8738L59.9831 24.8903C59.9499 24.9069 59.9167 24.9069 59.8835 24.9235C59.2697 25.0562 53.0821 26.433 49.0344 26.5159C44.7711 26.5989 41.5031 26.2173 40.0765 25.6865C38.6499 25.1392 34.3865 25.869 29.9739 22.7671C26.6727 20.4615 34.3533 16.3478 35.4814 15.8004L35.7634 15.6179Z" fill="#C3CDE9"/>
<path d="M36.8748 14.0753C36.9909 6.77681 38.1189 6.528 38.1189 6.528C38.1189 6.528 38.6166 7.67254 43.0458 7.22467C47.475 6.77681 48.2547 7.29102 48.2547 7.29102C48.2547 7.29102 52.6175 7.27444 56.8311 6.29577C61.8243 5.15123 62.6538 4.96877 63.5827 3.29343C63.6823 3.11097 63.9477 3.09438 64.0638 3.27685L64.9928 4.8029C65.225 5.16782 65.3743 5.58251 65.4075 5.9972L65.507 7.07539C65.5402 7.4569 65.6066 7.82182 65.7061 8.20334L66.3697 9.81232C66.5355 10.227 66.4692 10.6915 66.1872 11.0232L65.6729 11.6535C65.6232 11.7199 65.5568 11.7862 65.4739 11.8194C64.8932 12.1843 62.1395 13.8265 58.7056 14.772C53.5299 16.1985 46.7949 16.7791 43.5103 15.8834C43.2283 15.8004 42.9297 15.7672 42.6311 15.7507L41.0385 15.7175C40.4082 15.7009 39.7944 15.5516 39.2304 15.253L36.8748 14.0753Z" fill="#C3CDE9"/>
<path d="M51.2572 102.172C51.2572 102.172 47.7403 100.43 52.8331 87.8233C57.959 75.1505 52.5677 57.6838 52.5677 57.6838" stroke="black" stroke-width="0.5" stroke-miterlimit="10"/>
<path d="M52.0035 66.9397C52.0035 66.9397 43.1285 64.5345 43.1285 58.6957C43.1285 58.6957 43.394 55.9421 45.451 54.1341C47.5246 52.3261 49.8138 47.2337 49.8138 47.2337" stroke="black" stroke-width="0.5" stroke-miterlimit="10"/>
<path d="M52.4515 45.3593C52.4515 45.3593 59.2032 43.7835 65.5235 49.3072C69.9196 53.1555 67.4146 60.8687 67.4146 60.8687L68.7915 68.9302C68.7915 68.9302 74.9791 86.231 73.5691 92.5176" stroke="black" stroke-width="0.5" stroke-miterlimit="10"/>
<path d="M40.7729 119.489L41.337 117.764C41.337 117.764 44.522 112.705 45.2685 109.188C46.015 105.688 50.8755 103.93 50.8755 103.93L54.6246 101.574C54.6246 101.574 59.5349 98.0578 61.0776 96.5981C61.3431 96.3493 61.6748 96.2664 62.0232 96.2166C65.0424 95.8185 75.5099 97.1787 86.3922 88.6527" stroke="black" stroke-width="0.5" stroke-miterlimit="10"/>
<path d="M84.9159 89.7807C84.9159 89.7807 83.5556 86.4632 83.2238 86.0153C82.5769 85.1362 78.496 79.6955 79.2757 74.0723C80.0554 68.4491 82.2783 65.6956 82.0626 60.1554C81.847 54.6151 81.0673 55.3616 81.0673 55.3616" stroke="black" stroke-width="0.5" stroke-miterlimit="10"/>
<path d="M48.7854 115.773L46.7284 120.269L47.1265 128.313" stroke="black" stroke-width="0.5" stroke-miterlimit="10"/>
<path d="M52.3852 127.915L51.8543 127.086L51.8046 125.013L53.2809 119.074" stroke="black" stroke-width="0.5" stroke-miterlimit="10"/>
<path d="M57.8428 121.148L56.4825 125.394L56.947 127.086" stroke="black" stroke-width="0.5" stroke-miterlimit="10"/>
<path d="M65.8387 118.942L72.2586 109.337C72.2586 109.337 75.2778 108.757 83.7712 111.577C83.7712 111.577 87.0392 112.406 94.6037 109.52C94.6037 109.52 95.2341 108.972 97.0257 109.155C98.8173 109.354 100.609 103.183 100.725 101.724C100.825 100.43 99.879 85.866 99.6633 82.6646C99.6302 82.2499 99.6467 81.8518 99.6799 81.4371L100.476 73.2263C100.559 72.3638 100.775 71.5178 101.09 70.705C102.483 67.2051 105.984 56.108 98.2699 47.2337C98.0542 46.9849 97.7888 46.7692 97.5068 46.6034C96.1797 45.8072 92.0325 43.5015 87.4706 42.8214L68.7916 38.8902" stroke="black" stroke-width="0.5" stroke-miterlimit="10"/>
<path d="M67.0995 49.556C67.0995 49.556 70.5168 39.0561 67.6635 24.6249" stroke="black" stroke-width="0.5" stroke-miterlimit="10"/>
<path d="M68.7916 36.7504C68.7916 36.7504 70.2846 37.3807 70.8486 34.8594C71.4126 32.3381 71.6781 28.5894 71.479 28.1249C71.2799 27.6605 70.4505 27.6273 69.6708 27.9259" stroke="black" stroke-width="0.5" stroke-miterlimit="10"/>
<path d="M61.31 127.484C61.31 127.484 60.6298 129.674 62.1228 135.048C62.3219 135.761 62.4214 136.491 62.4214 137.221C62.4048 141.915 62.5541 159.349 63.1513 161.853C63.8481 164.773 69.903 181.194 69.903 181.194C69.903 181.194 70.3509 182.339 69.3058 186.403C69.0735 187.299 68.8911 188.194 68.9077 189.123C68.9574 190.749 69.256 193.386 70.4504 196.073C70.4504 196.073 69.82 197.682 70.0025 198.462" stroke="black" stroke-width="0.5" stroke-miterlimit="10"/>
<path d="M90.7552 150.441C96.7437 131.448 87.3213 116.636 87.3213 116.636" stroke="black" stroke-width="0.5" stroke-miterlimit="10"/>
<path d="M85.0817 122.956C94.023 142.662 89.8095 158.105 89.8095 158.105C89.8095 158.105 85.9443 173.796 86.9894 183.268C86.9894 183.268 86.9396 185.308 88.3994 187.896C89.8592 190.483 89.0132 194.216 89.0132 194.216C89.0132 194.216 87.9515 197.085 88.2004 198.578C88.4492 200.071 87.288 212.08 87.288 212.08C87.288 212.08 87.1553 214.535 85.2641 217.007" stroke="black" stroke-width="0.5" stroke-miterlimit="10"/>
<path d="M59.2032 219.711C59.2032 219.711 57.9259 215.696 62.3883 211.251C66.8507 206.806 68.3105 204.599 68.3105 204.599" stroke="black" stroke-width="0.5" stroke-miterlimit="10"/>
<path d="M65.1917 215.033C65.1917 215.033 65.8221 220.275 64.495 221.685" stroke="black" stroke-width="0.5" stroke-miterlimit="10"/>
<path d="M70.2845 215.63C70.2845 215.63 69.903 216.692 69.9196 217.538C69.9362 218.384 70.0689 219.429 70.0689 219.429C70.0689 219.429 69.9527 220.109 69.1399 220.689" stroke="black" stroke-width="0.5" stroke-miterlimit="10"/>
<path d="M74.7468 215.083C74.7468 215.083 75.0952 219.047 75.0288 219.18C74.9624 219.313 75.0786 219.628 74.1993 220.092" stroke="black" stroke-width="0.5" stroke-miterlimit="10"/>
<path d="M78.6287 220.076C78.6287 220.076 80.1714 218.533 80.4203 214.784" stroke="black" stroke-width="0.5" stroke-miterlimit="10"/>
<path d="M32.3292 148.401C32.3292 148.401 37.5381 164.126 38.0358 176.749C38.5334 189.372 44.1571 196.256 44.1571 196.256C44.1571 196.256 45.9652 197.135 45.9321 201.464L49.93 206.474C49.93 206.474 52.8994 208.978 52.0036 212.163C51.423 214.286 50.6765 216.741 50.2286 218.168C49.93 219.13 49.9134 220.158 50.1622 221.137C50.3944 222.049 50.8092 223.327 51.5557 225.085C51.5557 225.085 51.8377 226.843 51.423 227.888C51.0082 228.933 50.0793 231.206 50.0793 231.206" stroke="black" stroke-width="0.5" stroke-miterlimit="10"/>
<path d="M30.1561 204.284L30.7865 217.687C30.8031 218.151 30.6704 218.599 30.3718 218.948C29.3433 220.208 27.0706 223.692 28.912 227.888" stroke="black" stroke-width="0.5" stroke-miterlimit="10"/>
<path d="M34.0877 223.476C34.0877 223.476 32.9431 225.865 34.0877 229.083" stroke="black" stroke-width="0.5" stroke-miterlimit="10"/>
<path d="M38.1354 223.476L38.7657 229.381" stroke="black" stroke-width="0.5" stroke-miterlimit="10"/>
<path d="M43.4605 222.431C43.4605 222.431 41.9343 225.085 43.7922 228.684L43.3609 230.443" stroke="black" stroke-width="0.5" stroke-miterlimit="10"/>
<path d="M30.9193 223.741C30.9193 223.741 30.4217 224.786 30.77 225.583" stroke="black" stroke-width="0.5" stroke-miterlimit="10"/>
<path d="M27.6513 198.562C27.6513 198.562 1.54049 165.453 0.0972674 129.375C0.0972674 129.375 -1.22983 125.079 5.91994 123.138C5.91994 123.138 8.8064 122.989 10.3989 121.231C12.008 119.472 18.6767 117.581 22.3097 119.124C25.9426 120.667 39.8772 125.875 42.8466 129.375" stroke="black" stroke-width="0.5" stroke-miterlimit="10"/>
<path d="M35.2324 117.697C35.2324 117.697 30.3222 104.676 31.1848 101.458C32.0474 98.2403 28.9287 91.9039 28.9287 91.9039" stroke="black" stroke-width="0.5" stroke-miterlimit="10"/>
<path d="M29.4097 90.1456C29.4097 90.1456 25.6772 84.539 23.8358 83.494C21.9945 82.449 18.9753 73.923 18.8094 72.9112C18.6436 71.8993 17.4657 65.4634 17.9468 63.5226" stroke="black" stroke-width="0.5" stroke-miterlimit="10"/>
<path d="M46.3468 53.1721C46.3468 53.1721 44.323 52.8403 43.4604 51.8451C42.5978 50.8498 40.5242 44.0157 40.5242 44.0157L37.0405 46.5536C37.0405 46.5536 30.9192 48.992 28.3977 51.1318C25.8762 53.2716 20.0038 60.5535 20.0038 60.5535" stroke="black" stroke-width="0.5" stroke-miterlimit="10"/>
<path d="M40.5409 44.0157C40.5409 44.0157 37.7706 35.8547 38.0194 34.9092C38.2516 33.9637 37.671 29.9993 37.671 29.9993" stroke="black" stroke-width="0.5" stroke-miterlimit="10"/>
<path d="M37.4054 27.7268C37.4054 27.7268 37.1731 26.9638 36.9077 25.7695" stroke="black" stroke-width="0.5" stroke-miterlimit="10"/>
<path d="M44.854 31.1106C45.4678 31.1106 45.9655 30.6131 45.9655 29.9993C45.9655 29.3855 45.4678 28.8879 44.854 28.8879C44.2402 28.8879 43.7426 29.3855 43.7426 29.9993C43.7426 30.6131 44.2402 31.1106 44.854 31.1106Z" stroke="black" stroke-width="0.5" stroke-miterlimit="10"/>
<path d="M57.6273 30.1983C58.2411 30.1983 58.7388 29.7008 58.7388 29.087C58.7388 28.4732 58.2411 27.9756 57.6273 27.9756C57.0135 27.9756 56.5159 28.4732 56.5159 29.087C56.5159 29.7008 57.0135 30.1983 57.6273 30.1983Z" stroke="black" stroke-width="0.5" stroke-miterlimit="10"/>
<path d="M41.6025 29.6841C41.6025 29.6841 43.6595 27.196 47.1598 28.5064" stroke="black" stroke-width="0.5" stroke-miterlimit="10"/>
<path d="M54.8239 28.3903C54.8239 28.3903 56.5159 26.2671 60.4806 27.6273" stroke="black" stroke-width="0.5" stroke-miterlimit="10"/>
<path d="M48.9182 37.2978C48.9182 37.2978 49.5154 38.5253 51.6885 38.5419" stroke="black" stroke-width="0.5" stroke-miterlimit="10"/>
<path d="M47.2759 44.729C47.2759 44.729 46.7285 45.3262 50.9254 45.6579" stroke="black" stroke-width="0.5" stroke-miterlimit="10"/>
</g>
<defs>
<clipPath id="clip0">
<rect width="103" height="231" fill="white"/>
</clipPath>
</defs>
</svg>
