<svg width="115" height="257" viewBox="0 0 115 257" fill="none" xmlns="http://www.w3.org/2000/svg">
<g clip-path="url(#clip0)">
<path d="M39.9547 174.936C43.4306 191.394 49.4629 220.446 51.8274 220.879C58.9004 226.301 58.1527 233.836 56.2935 241.984C64.7812 258.341 39.2676 252.627 39.2676 250.615L38.4694 250.364C37.9035 252.275 36.691 253.04 33.8315 249.217C32.9726 240.304 37.4185 232.689 35.135 223.887C32.7503 214.169 6.75179 189.945 3.36683 143.489C3.36683 143.489 1.96232 138.882 9.53049 136.8C18.5739 129.466 32.6493 133.148 43.0871 139.586C39.7628 130.352 34.8621 111.339 34.3468 101.39C28.2135 94.5289 20.6554 83.3526 22.2317 72.7899C25.5762 65.2552 38.9342 55.3564 46.1285 51.8657C46.4417 53.1634 48.6344 61.694 51.8173 61.7443C48.4323 68.3335 48.4929 74.3492 58.2436 76.4718L60.9314 76.6126C60.3858 89.9417 55.9702 111.962 57.4555 114.286L58.3245 115.252C61.3053 112.777 64.569 110.514 67.8327 108.321C70.571 107.335 75.4008 108.099 81.6352 106.48L81.0391 103.935C81.6656 89.8512 74.8148 78.9163 74.5319 69.9832C77.2297 66.231 75.3705 61.8248 72.0563 58.3945L74.0267 58.0122C74.0267 57.5394 75.6333 52.3687 76.189 46.4134C100.015 48.6667 120.85 58.3442 109.493 83.252C106.078 94.5088 114.363 114.135 105.845 121.821C101.42 123.4 97.7416 123.893 94.6194 123.893L94.6093 124.467C94.6295 133.249 105.279 138.842 99.6513 164.233C99.7928 178.155 91.9114 180.63 96.711 206.322C97.5193 217.207 97.1758 227.699 93.3765 237.548C87.5968 243.604 66.701 245.565 65.8522 240.455C64.2254 233.544 79.483 222.448 77.735 215.084C74.7239 210.598 77.4824 201.665 77.159 199.12C73.4103 192.812 71.3389 182.471 70.0961 171.757L69.5605 171.818C53.919 176.526 40.5105 174.825 40.5105 174.825L39.9547 174.936Z" fill="#F2F2F2"/>
<path d="M51.8173 61.7444C48.6344 61.6941 46.4418 53.1635 46.1285 51.8658C37.9036 31.1931 44.4613 25.791 72.4706 30.4285C73.7337 31.6457 74.6229 33.1648 75.2291 34.8649C76.2295 37.6212 76.4821 40.8403 76.3608 44.0091C76.3305 44.824 76.2699 45.6287 76.1991 46.4235C75.6434 52.3788 74.0368 57.5394 74.0368 58.0223L72.0665 58.4046C75.3908 61.8349 77.2399 66.2411 74.542 69.9933C74.825 78.9264 81.6757 89.8613 81.0492 103.945L81.6454 106.49C75.4009 108.11 70.571 107.345 67.8428 108.331C64.569 110.524 61.3053 112.787 58.3346 115.262L57.4656 114.296C55.9904 111.972 60.3959 89.9518 60.9416 76.6227L58.2538 76.4818C48.493 74.3492 48.4323 68.3435 51.8173 61.7444Z" fill="#F2F2F2"/>
<path d="M75.4008 34.8045C81.0592 31.2836 79.2202 42.9831 76.3607 44.0091C76.492 40.8504 76.2293 37.6212 75.229 34.8649L75.4008 34.8045Z" fill="#F2F2F2"/>
<path d="M40.5966 16.0102C40.5966 16.0102 40.3929 6.52455 43.1155 5.02973C45.8382 3.53492 47.3014 2.77828 47.3014 2.77828C47.3014 2.77828 51.1538 1.35729 51.6539 1.32038C52.154 1.28347 56.5992 0.102381 58.7847 0.471471C60.9702 0.840561 69.3234 1.32038 70.1013 1.91092C70.8792 2.50147 73.6389 4.56837 73.9908 7.355C74.5465 11.7841 75.5096 12.4854 76.6394 13.5188C77.7692 14.5523 84.1036 17.7818 84.1036 17.7818C84.1036 17.7818 85.1593 18.5938 84.2703 20.6976C83.3812 22.8014 79.0843 24.61 79.0843 24.61L68.0825 28.1163C68.0825 28.1163 60.4331 29.9249 55.5064 30.0356C50.5797 30.1463 46.8198 29.6849 45.1714 29.039C43.523 28.3931 38.3925 29.4635 33.188 25.9571C27.9649 22.4323 39.5779 16.8222 39.5779 16.8222L40.5966 16.0102Z" stroke="black" stroke-width="0.5" stroke-miterlimit="10"/>
<path d="M40.5964 16.0102C40.5964 16.0102 43.8007 18.1325 46.1714 18.4093C48.5607 18.6861 56.4508 20.4946 70.6753 15.3089C70.6753 15.3089 73.861 14.1832 75.0834 11.7841" stroke="black" stroke-width="0.5" stroke-miterlimit="10"/>
<path d="M42.671 5.38038C42.671 5.38038 41.7634 6.48765 43.8934 7.26274C46.0419 8.03783 48.9868 6.6722 53.7654 7.33656C53.7654 7.33656 59.3033 7.39192 62.7483 6.50611C66.1933 5.62029 69.4531 4.69756 69.4531 4.69756C69.4531 4.69756 71.7683 3.23966 69.0826 1.61566" stroke="black" stroke-width="0.5" stroke-miterlimit="10"/>
<path d="M56.4595 6.85834C63.4307 6.1532 68.9547 4.33209 68.7977 2.79079C68.6406 1.24948 62.8621 0.571641 55.8908 1.27678C48.9196 1.98193 43.3956 3.80303 43.5527 5.34434C43.7097 6.88564 49.4883 7.56348 56.4595 6.85834Z" fill="#C3CDE9"/>
<path d="M39.9298 17.3758C40.4114 17.0067 40.6522 16.8775 41.1708 17.1728C42.245 17.7818 44.1898 18.5938 45.7085 18.9075C50.3759 19.8856 56.2287 19.9963 64.1559 18.1878C68.7493 17.1359 73.25 14.663 75.3614 13.3342C75.843 13.0205 76.2319 13.9248 76.5838 14.3677L83.5479 18.4277C84.2147 19.2581 86.0483 22.4323 67.0082 27.6734L66.9712 27.6918C66.9342 27.7103 66.8971 27.7103 66.8601 27.7288C66.1748 27.8764 59.2663 29.4081 54.747 29.5004C49.987 29.5927 46.3383 29.1682 44.7454 28.5777C43.1526 27.9687 38.3925 28.7807 33.4658 25.3297C29.78 22.7645 38.3555 18.1878 39.615 17.5788L39.9298 17.3758Z" fill="#C3CDE9"/>
<path d="M41.1707 15.6595C41.3003 7.53956 42.5598 7.26274 42.5598 7.26274C42.5598 7.26274 43.1154 8.5361 48.0606 8.03783C53.0059 7.53956 53.8764 8.11165 53.8764 8.11165C53.8764 8.11165 58.7475 8.09319 63.452 7.00437C69.027 5.73101 69.953 5.52801 70.9902 3.66411C71.1014 3.46111 71.3977 3.44266 71.5274 3.64566L72.5646 5.34347C72.8239 5.74947 72.9906 6.21083 73.0276 6.67219L73.1387 7.87174C73.1758 8.29619 73.2499 8.70219 73.361 9.12664L74.1019 10.9167C74.2871 11.3781 74.213 11.8948 73.8981 12.2639L73.324 12.9652C73.2684 13.039 73.1943 13.1128 73.1017 13.1497C72.4534 13.5557 69.3789 15.3827 65.5449 16.4346C59.7662 18.0217 52.2465 18.6676 48.5792 17.6711C48.2644 17.5788 47.931 17.5419 47.5976 17.5234L45.8195 17.4865C45.1157 17.4681 44.4304 17.302 43.8007 16.9698L41.1707 15.6595Z" fill="#C3CDE9"/>
<path d="M57.2287 113.671C57.2287 113.671 53.3022 111.734 58.9883 97.7082C64.7114 83.609 58.6919 64.1764 58.6919 64.1764" stroke="black" stroke-width="0.5" stroke-miterlimit="10"/>
<path d="M58.0623 74.474C58.0623 74.474 48.1533 71.7981 48.1533 65.3021C48.1533 65.3021 48.4497 62.2387 50.7463 60.2271C53.0615 58.2156 55.6175 52.5501 55.6175 52.5501" stroke="black" stroke-width="0.5" stroke-miterlimit="10"/>
<path d="M58.5625 50.4647C58.5625 50.4647 66.1007 48.7115 73.1574 54.8569C78.0656 59.1383 75.2689 67.7197 75.2689 67.7197L76.8062 76.6886C76.8062 76.6886 83.7147 95.9366 82.1403 102.931" stroke="black" stroke-width="0.5" stroke-miterlimit="10"/>
<path d="M45.5233 132.938L46.153 131.019C46.153 131.019 49.7092 125.39 50.5426 121.478C51.3761 117.584 56.8029 115.628 56.8029 115.628L60.9887 113.007C60.9887 113.007 66.4711 109.095 68.1936 107.471C68.4899 107.194 68.8604 107.102 69.2493 107.046C72.6202 106.603 84.3073 108.117 96.4574 98.631" stroke="black" stroke-width="0.5" stroke-miterlimit="10"/>
<path d="M94.809 99.8859C94.809 99.8859 93.2902 96.195 92.9198 95.6967C92.1975 94.7186 87.6412 88.6655 88.5117 82.4094C89.3822 76.1534 91.8641 73.0899 91.6233 66.9261C91.3825 60.7623 90.512 61.5927 90.512 61.5927" stroke="black" stroke-width="0.5" stroke-miterlimit="10"/>
<path d="M54.4693 128.804L52.1726 133.805L52.6171 142.756" stroke="black" stroke-width="0.5" stroke-miterlimit="10"/>
<path d="M58.4882 142.313L57.8955 141.39L57.84 139.083L59.4883 132.477" stroke="black" stroke-width="0.5" stroke-miterlimit="10"/>
<path d="M64.5819 134.783L63.0631 139.508L63.5817 141.39" stroke="black" stroke-width="0.5" stroke-miterlimit="10"/>
<path d="M73.5094 132.329L80.6772 121.644C80.6772 121.644 84.0481 120.998 93.5311 124.135C93.5311 124.135 97.1798 125.058 105.626 121.847C105.626 121.847 106.329 121.238 108.33 121.441C110.33 121.662 112.33 114.797 112.46 113.173C112.571 111.734 111.515 95.5306 111.275 91.9689C111.238 91.5075 111.256 91.0646 111.293 90.6032L112.182 81.4682C112.275 80.5086 112.516 79.5674 112.868 78.6632C114.423 74.7693 118.331 62.4232 109.719 52.55C109.478 52.2732 109.182 52.0333 108.867 51.8488C107.385 50.963 102.755 48.3978 97.6614 47.6411L76.8062 43.2674" stroke="black" stroke-width="0.5" stroke-miterlimit="10"/>
<path d="M74.917 55.1337C74.917 55.1337 78.7324 43.452 75.5467 27.3966" stroke="black" stroke-width="0.5" stroke-miterlimit="10"/>
<path d="M76.8062 40.8868C76.8062 40.8868 78.4731 41.5881 79.1028 38.783C79.7325 35.9779 80.0289 31.8072 79.8066 31.2905C79.5844 30.7738 78.6583 30.7369 77.7878 31.069" stroke="black" stroke-width="0.5" stroke-miterlimit="10"/>
<path d="M68.4529 141.833C68.4529 141.833 67.6935 144.269 69.3604 150.248C69.5827 151.042 69.6938 151.854 69.6938 152.666C69.6753 157.888 69.842 177.284 70.5087 180.071C71.2867 183.319 78.047 201.589 78.047 201.589C78.047 201.589 78.5471 202.862 77.3802 207.383C77.1209 208.38 76.9172 209.376 76.9357 210.41C76.9913 212.218 77.3247 215.153 78.6582 218.142C78.6582 218.142 77.9544 219.932 78.1581 220.8" stroke="black" stroke-width="0.5" stroke-miterlimit="10"/>
<path d="M101.328 167.374C108.015 146.244 97.4945 129.764 97.4945 129.764" stroke="black" stroke-width="0.5" stroke-miterlimit="10"/>
<path d="M94.9941 136.795C104.977 158.719 100.273 175.9 100.273 175.9C100.273 175.9 95.9573 193.358 97.1241 203.895C97.1241 203.895 97.0685 206.165 98.6984 209.044C100.328 211.923 99.3837 216.075 99.3837 216.075C99.3837 216.075 98.1984 219.268 98.4762 220.929C98.754 222.59 97.4575 235.951 97.4575 235.951C97.4575 235.951 97.3093 238.682 95.1979 241.432" stroke="black" stroke-width="0.5" stroke-miterlimit="10"/>
<path d="M66.1008 244.44C66.1008 244.44 64.6746 239.974 69.6569 235.028C74.6392 230.082 76.2691 227.628 76.2691 227.628" stroke="black" stroke-width="0.5" stroke-miterlimit="10"/>
<path d="M72.7869 239.236C72.7869 239.236 73.4908 245.067 72.009 246.636" stroke="black" stroke-width="0.5" stroke-miterlimit="10"/>
<path d="M78.473 239.9C78.473 239.9 78.047 241.081 78.0656 242.022C78.0841 242.964 78.2323 244.126 78.2323 244.126C78.2323 244.126 78.1026 244.883 77.1951 245.529" stroke="black" stroke-width="0.5" stroke-miterlimit="10"/>
<path d="M83.4552 239.291C83.4552 239.291 83.8442 243.702 83.7701 243.849C83.696 243.997 83.8256 244.348 82.844 244.864" stroke="black" stroke-width="0.5" stroke-miterlimit="10"/>
<path d="M87.7893 244.846C87.7893 244.846 89.5118 243.13 89.7896 238.959" stroke="black" stroke-width="0.5" stroke-miterlimit="10"/>
<path d="M36.0957 165.104C36.0957 165.104 41.9115 182.599 42.4671 196.643C43.0227 210.687 49.3015 218.345 49.3015 218.345C49.3015 218.345 51.3204 219.323 51.2833 224.14L55.747 229.713C55.747 229.713 59.0624 232.5 58.0622 236.043C57.4139 238.405 56.5805 241.137 56.0804 242.724C55.747 243.794 55.7285 244.938 56.0063 246.027C56.2656 247.042 56.7287 248.463 57.5621 250.419C57.5621 250.419 57.877 252.375 57.4139 253.538C56.9509 254.701 55.9137 257.229 55.9137 257.229" stroke="black" stroke-width="0.5" stroke-miterlimit="10"/>
<path d="M33.6696 227.277L34.3734 242.189C34.3919 242.705 34.2437 243.204 33.9103 243.591C32.762 244.994 30.2246 248.869 32.2804 253.538" stroke="black" stroke-width="0.5" stroke-miterlimit="10"/>
<path d="M38.0591 248.629C38.0591 248.629 36.7811 251.287 38.0591 254.867" stroke="black" stroke-width="0.5" stroke-miterlimit="10"/>
<path d="M42.5782 248.629L43.2821 255.199" stroke="black" stroke-width="0.5" stroke-miterlimit="10"/>
<path d="M48.5239 247.467C48.5239 247.467 46.8199 250.419 48.8943 254.424L48.4128 256.38" stroke="black" stroke-width="0.5" stroke-miterlimit="10"/>
<path d="M34.5217 248.924C34.5217 248.924 33.966 250.087 34.355 250.973" stroke="black" stroke-width="0.5" stroke-miterlimit="10"/>
<path d="M30.8728 220.91C30.8728 220.91 1.71997 184.075 0.1086 143.937C0.1086 143.937 -1.37312 139.157 6.60964 136.998C6.60964 136.998 9.83239 136.832 11.6105 134.876C13.407 132.919 20.8527 130.816 24.9089 132.532C28.9651 134.248 44.5231 140.043 47.8385 143.937" stroke="black" stroke-width="0.5" stroke-miterlimit="10"/>
<path d="M39.3371 130.945C39.3371 130.945 33.8548 116.458 34.8179 112.878C35.781 109.298 32.299 102.248 32.299 102.248" stroke="black" stroke-width="0.5" stroke-miterlimit="10"/>
<path d="M32.836 100.292C32.836 100.292 28.6687 94.0542 26.6128 92.8916C24.5569 91.729 21.186 82.2434 21.0008 81.1176C20.8156 79.9919 19.5006 72.8316 20.0377 70.6724" stroke="black" stroke-width="0.5" stroke-miterlimit="10"/>
<path d="M51.7465 59.1568C51.7465 59.1568 49.4869 58.7877 48.5238 57.6804C47.5606 56.5731 45.2454 48.9699 45.2454 48.9699L41.3559 51.7934C41.3559 51.7934 34.5215 54.5062 31.7062 56.8869C28.891 59.2675 22.3344 67.369 22.3344 67.369" stroke="black" stroke-width="0.5" stroke-miterlimit="10"/>
<path d="M45.264 48.9699C45.264 48.9699 42.1709 39.8903 42.4488 38.8384C42.7081 37.7864 42.0598 33.3758 42.0598 33.3758" stroke="black" stroke-width="0.5" stroke-miterlimit="10"/>
<path d="M41.7634 30.8476C41.7634 30.8476 41.5041 29.9987 41.2078 28.67" stroke="black" stroke-width="0.5" stroke-miterlimit="10"/>
<path d="M50.0797 34.6122C50.765 34.6122 51.3206 34.0587 51.3206 33.3758C51.3206 32.6929 50.765 32.1393 50.0797 32.1393C49.3943 32.1393 48.8387 32.6929 48.8387 33.3758C48.8387 34.0587 49.3943 34.6122 50.0797 34.6122Z" stroke="black" stroke-width="0.5" stroke-miterlimit="10"/>
<path d="M64.3412 33.5973C65.0265 33.5973 65.5821 33.0437 65.5821 32.3608C65.5821 31.6779 65.0265 31.1244 64.3412 31.1244C63.6558 31.1244 63.1002 31.6779 63.1002 32.3608C63.1002 33.0437 63.6558 33.5973 64.3412 33.5973Z" stroke="black" stroke-width="0.5" stroke-miterlimit="10"/>
<path d="M46.4495 33.0252C46.4495 33.0252 48.7461 30.257 52.6542 31.7149" stroke="black" stroke-width="0.5" stroke-miterlimit="10"/>
<path d="M61.2111 31.5857C61.2111 31.5857 63.1002 29.2236 67.5269 30.7368" stroke="black" stroke-width="0.5" stroke-miterlimit="10"/>
<path d="M54.6173 41.4958C54.6173 41.4958 55.2841 42.8614 57.7104 42.8799" stroke="black" stroke-width="0.5" stroke-miterlimit="10"/>
<path d="M52.7837 49.7634C52.7837 49.7634 52.1725 50.4278 56.8585 50.7969" stroke="black" stroke-width="0.5" stroke-miterlimit="10"/>
</g>
<defs>
<clipPath id="clip0">
<rect width="115" height="257" fill="white"/>
</clipPath>
</defs>
</svg>
