<svg width="245" height="162" viewBox="0 0 245 162" fill="none" xmlns="http://www.w3.org/2000/svg">
<rect x="-89" y="-25" width="411" height="731" rx="20" fill="#FEFEFE"/>
<path d="M15.384 143.792C12.792 143.792 10.464 143.576 8.4 143.144C6.336 142.712 4.032 142.136 1.488 141.416C-0.192 140.936 -1.32 140.672 -1.896 140.624L-1.248 127.304H4.584L6.168 136.592C6.792 137.264 7.896 137.864 9.48 138.392C11.112 138.92 12.96 139.184 15.024 139.184C18.24 139.184 20.64 138.488 22.224 137.096C23.856 135.656 24.672 133.664 24.672 131.12C24.672 129.44 24.192 128 23.232 126.8C22.272 125.552 20.952 124.448 19.272 123.488C17.592 122.48 15.288 121.328 12.36 120.032C8.376 118.208 5.064 116.048 2.424 113.552C-0.168 111.008 -1.464 107.576 -1.464 103.256C-1.464 100.568 -0.768 98.144 0.624001 95.984C2.016 93.776 4.08 92.048 6.816 90.8C9.6 89.504 12.984 88.856 16.968 88.856C19.32 88.856 21.384 89.024 23.16 89.36C24.984 89.696 26.952 90.152 29.064 90.728C30.312 91.064 31.248 91.28 31.872 91.376L31.44 103.976H25.68L24.168 95.12C23.736 94.688 22.872 94.28 21.576 93.896C20.28 93.464 18.84 93.248 17.256 93.248C14.376 93.248 12.192 93.92 10.704 95.264C9.264 96.56 8.544 98.312 8.544 100.52C8.544 102.296 9.072 103.832 10.128 105.128C11.232 106.424 12.552 107.528 14.088 108.44C15.624 109.304 18.048 110.552 21.36 112.184C24.048 113.48 26.352 114.752 28.272 116C30.192 117.248 31.848 118.88 33.24 120.896C34.632 122.864 35.328 125.192 35.328 127.88C35.328 130.52 34.656 133.04 33.312 135.44C32.016 137.84 29.856 139.832 26.832 141.416C23.856 143 20.04 143.792 15.384 143.792ZM44.1908 96.416C42.4628 96.416 41.0948 95.912 40.0868 94.904C39.0788 93.896 38.5748 92.6 38.5748 91.016C38.5748 89.192 39.1508 87.68 40.3028 86.48C41.4548 85.28 42.9908 84.68 44.9108 84.68C46.8308 84.68 48.2948 85.208 49.3028 86.264C50.3108 87.272 50.8148 88.544 50.8148 90.08C50.8148 92 50.2388 93.536 49.0868 94.688C47.9348 95.84 46.3268 96.416 44.2628 96.416H44.1908ZM40.3748 109.808L35.2628 108.44V103.616L48.4388 102.032H48.5828L50.5988 103.472V138.104L55.4228 138.68V143H35.3348V138.68L40.3748 138.032V109.808ZM73.0078 162.44C66.5758 162.44 61.9198 161.432 59.0398 159.416C56.1598 157.4 54.7197 154.664 54.7197 151.208C54.7197 149.24 55.3678 147.368 56.6638 145.592C58.0078 143.864 59.6158 142.568 61.4878 141.704C59.2798 140.408 58.1758 138.344 58.1758 135.512C58.1758 133.88 58.7038 132.344 59.7598 130.904C60.8158 129.416 62.1838 128.264 63.8638 127.448C61.2238 126.44 59.2558 124.904 57.9598 122.84C56.6638 120.776 56.0158 118.328 56.0158 115.496C56.0158 112.76 56.8078 110.384 58.3918 108.368C60.0238 106.304 62.1838 104.72 64.8718 103.616C67.6078 102.512 70.5598 101.96 73.7278 101.96C79.3438 101.96 83.5198 103.04 86.2558 105.2C86.8798 104.384 87.9358 103.616 89.4238 102.896C90.9118 102.176 92.4478 101.816 94.0318 101.816H96.5518V109.664H89.1358C89.8558 111.2 90.2158 112.832 90.2158 114.56C90.2638 118.928 88.7278 122.432 85.6078 125.072C82.4878 127.664 78.2158 128.96 72.7918 128.96C70.5358 128.96 68.6398 128.792 67.1038 128.456C66.6238 129.08 66.2398 129.752 65.9518 130.472C65.7118 131.144 65.5918 131.744 65.5918 132.272C65.5918 133.856 66.1438 134.936 67.2478 135.512C68.3998 136.088 70.4398 136.376 73.3678 136.376H81.0718C90.8638 136.376 95.7598 139.928 95.7598 147.032C95.7598 150.008 94.7038 152.672 92.5918 155.024C90.4798 157.376 87.6718 159.2 84.1678 160.496C80.6638 161.792 76.9438 162.44 73.0078 162.44ZM73.5117 124.496C77.9758 124.496 80.2078 121.448 80.2078 115.352C80.2078 112.232 79.6318 109.952 78.4798 108.512C77.3758 107.024 75.6718 106.28 73.3678 106.28C71.1118 106.28 69.3598 107.024 68.1118 108.512C66.9118 109.952 66.3118 112.136 66.3118 115.064C66.3118 121.352 68.7118 124.496 73.5117 124.496ZM74.0878 157.472C77.1118 157.472 79.7278 156.728 81.9358 155.24C84.1438 153.8 85.2478 151.784 85.2478 149.192C85.2478 147.128 84.6958 145.64 83.5918 144.728C82.5358 143.816 80.6158 143.36 77.8318 143.36H69.9838C68.7838 143.36 67.6798 143.288 66.6718 143.144C65.3758 144.872 64.7278 146.936 64.7278 149.336C64.7278 151.976 65.4478 153.992 66.8878 155.384C68.3278 156.776 70.7278 157.472 74.0878 157.472ZM99.4048 109.808L94.7968 108.512V103.544L106.749 102.032H106.965L108.765 103.472V106.28L108.693 108.008C110.373 106.424 112.557 105.056 115.245 103.904C117.933 102.752 120.645 102.176 123.381 102.176C126.309 102.176 128.589 102.728 130.221 103.832C131.901 104.888 133.101 106.568 133.821 108.872C134.541 111.176 134.901 114.296 134.901 118.232V138.104L139.293 138.68V143H120.717V138.68L124.605 138.104V118.232C124.605 115.736 124.437 113.792 124.101 112.4C123.765 110.96 123.141 109.928 122.229 109.304C121.365 108.632 120.117 108.296 118.485 108.296C115.749 108.296 112.821 109.472 109.701 111.824V138.032L114.021 138.68V143H95.2288V138.68L99.4048 138.032V109.808ZM160.035 96.416C158.307 96.416 156.939 95.912 155.931 94.904C154.923 93.896 154.419 92.6 154.419 91.016C154.419 89.192 154.995 87.68 156.147 86.48C157.299 85.28 158.835 84.68 160.755 84.68C162.675 84.68 164.139 85.208 165.147 86.264C166.155 87.272 166.659 88.544 166.659 90.08C166.659 92 166.083 93.536 164.931 94.688C163.779 95.84 162.171 96.416 160.107 96.416H160.035ZM156.219 109.808L151.107 108.44V103.616L164.283 102.032H164.427L166.443 103.472V138.104L171.267 138.68V143H151.179V138.68L156.219 138.032V109.808ZM175.46 109.808L170.852 108.512V103.544L182.804 102.032H183.02L184.82 103.472V106.28L184.748 108.008C186.428 106.424 188.612 105.056 191.3 103.904C193.988 102.752 196.7 102.176 199.436 102.176C202.364 102.176 204.644 102.728 206.276 103.832C207.956 104.888 209.156 106.568 209.876 108.872C210.596 111.176 210.956 114.296 210.956 118.232V138.104L215.348 138.68V143L196.772 143V138.68L200.66 138.104V118.232C200.66 115.736 200.492 113.792 200.156 112.4C199.82 110.96 199.196 109.928 198.284 109.304C197.42 108.632 196.172 108.296 194.54 108.296C191.804 108.296 188.876 109.472 185.756 111.824V138.032L190.076 138.68V143H171.284V138.68L175.46 138.032V109.808ZM222.203 143.648C220.715 143.648 219.419 143.144 218.315 142.136C217.211 141.08 216.659 139.76 216.659 138.176C216.659 136.4 217.283 134.96 218.531 133.856C219.827 132.704 221.387 132.128 223.211 132.128C224.939 132.128 226.307 132.68 227.315 133.784C228.323 134.84 228.827 136.112 228.827 137.6C228.827 139.472 228.203 140.96 226.955 142.064C225.755 143.12 224.171 143.648 222.203 143.648Z" fill="#7E88A1"/>
<path d="M6.768 58.752L3.336 58.872L2.4 64.104H0.384L0.792 57.168H16.272L16.56 64.104H14.664L13.728 58.872L10.344 58.752L10.344 73.32L13.704 73.56V75H3.696V73.56L6.768 73.32L6.768 58.752ZM18.7939 57.456L16.9699 57.144V55.848L21.4339 55.32H21.5059L22.1299 55.776L22.1539 61.128L21.9859 63.216C22.4819 62.768 23.1539 62.352 24.0019 61.968C24.8659 61.584 25.7699 61.392 26.7139 61.392C27.7219 61.392 28.5059 61.584 29.0659 61.968C29.6259 62.336 30.0179 62.904 30.2419 63.672C30.4659 64.44 30.5779 65.464 30.5779 66.744V73.344L32.1139 73.56V75H25.8019V73.56L27.1939 73.344V66.744C27.1939 65.912 27.1379 65.264 27.0259 64.8C26.9139 64.336 26.7059 63.992 26.4019 63.768C26.1139 63.544 25.6819 63.432 25.1059 63.432C24.6099 63.432 24.0979 63.552 23.5699 63.792C23.0579 64.016 22.6019 64.288 22.2019 64.608V73.344L23.6659 73.56V75H17.4499V73.56L18.7939 73.368V57.456ZM33.2441 68.352C33.2441 66.848 33.5401 65.568 34.1321 64.512C34.7401 63.456 35.5481 62.664 36.5561 62.136C37.5641 61.592 38.6601 61.32 39.8441 61.32C41.8601 61.32 43.4121 61.944 44.5001 63.192C45.6041 64.424 46.1561 66.104 46.1561 68.232C46.1561 69.752 45.8521 71.048 45.2441 72.12C44.6521 73.176 43.8521 73.968 42.8441 74.496C41.8521 75.008 40.7561 75.264 39.5561 75.264C37.5561 75.264 36.0041 74.648 34.9001 73.416C33.7961 72.168 33.2441 70.48 33.2441 68.352ZM39.7481 73.704C41.5561 73.704 42.4601 71.96 42.4601 68.472C42.4601 66.648 42.2441 65.264 41.8121 64.32C41.3801 63.36 40.6761 62.88 39.7001 62.88C37.8441 62.88 36.9161 64.624 36.9161 68.112C36.9161 69.936 37.1401 71.328 37.5881 72.288C38.0521 73.232 38.7721 73.704 39.7481 73.704ZM58.6618 75.24C58.1338 75.24 57.7498 75.128 57.5098 74.904C57.2698 74.68 57.1498 74.344 57.1498 73.896V73.248C56.7178 73.776 56.1098 74.248 55.3258 74.664C54.5418 75.064 53.7578 75.264 52.9738 75.264C51.4378 75.264 50.3418 74.872 49.6858 74.088C49.0298 73.288 48.7018 71.976 48.7018 70.152V63.384L47.5018 63.048V61.68L51.5818 61.368H51.6058L52.0858 61.704V70.152C52.0858 71.32 52.2298 72.136 52.5178 72.6C52.8058 73.064 53.3418 73.296 54.1258 73.296C55.0698 73.296 55.9498 72.928 56.7658 72.192V63.384L55.1578 63.024V61.68L59.5018 61.368H59.5498L60.1258 61.704V73.512H61.4698L61.4458 74.88C61.3818 74.896 61.0858 74.96 60.5578 75.072C60.0298 75.184 59.3978 75.24 58.6618 75.24ZM68.4739 81.48C66.3299 81.48 64.7779 81.144 63.8179 80.472C62.8579 79.8 62.3779 78.888 62.3779 77.736C62.3779 77.08 62.5939 76.456 63.0259 75.864C63.4739 75.288 64.0099 74.856 64.6339 74.568C63.8979 74.136 63.5299 73.448 63.5299 72.504C63.5299 71.96 63.7059 71.448 64.0579 70.968C64.4099 70.472 64.8659 70.088 65.4259 69.816C64.5459 69.48 63.8899 68.968 63.4579 68.28C63.0259 67.592 62.8099 66.776 62.8099 65.832C62.8099 64.92 63.0739 64.128 63.6019 63.456C64.1459 62.768 64.8659 62.24 65.7619 61.872C66.6739 61.504 67.6579 61.32 68.7139 61.32C70.5859 61.32 71.9779 61.68 72.8899 62.4C73.0979 62.128 73.4499 61.872 73.9459 61.632C74.4419 61.392 74.9539 61.272 75.4819 61.272H76.3219V63.888H73.8499C74.0899 64.4 74.2099 64.944 74.2099 65.52C74.2259 66.976 73.7139 68.144 72.6739 69.024C71.6339 69.888 70.2099 70.32 68.4019 70.32C67.6499 70.32 67.0179 70.264 66.5059 70.152C66.3459 70.36 66.2179 70.584 66.1219 70.824C66.0419 71.048 66.0019 71.248 66.0019 71.424C66.0019 71.952 66.1859 72.312 66.5539 72.504C66.9379 72.696 67.6179 72.792 68.5939 72.792H71.1619C74.4259 72.792 76.0579 73.976 76.0579 76.344C76.0579 77.336 75.7059 78.224 75.0019 79.008C74.2979 79.792 73.3619 80.4 72.1939 80.832C71.0259 81.264 69.7859 81.48 68.4739 81.48ZM68.6419 68.832C70.1299 68.832 70.8739 67.816 70.8739 65.784C70.8739 64.744 70.6819 63.984 70.2979 63.504C69.9299 63.008 69.3619 62.76 68.5939 62.76C67.8419 62.76 67.2579 63.008 66.8419 63.504C66.4419 63.984 66.2419 64.712 66.2419 65.688C66.2419 67.784 67.0419 68.832 68.6419 68.832ZM68.8339 79.824C69.8419 79.824 70.7139 79.576 71.4499 79.08C72.1859 78.6 72.5539 77.928 72.5539 77.064C72.5539 76.376 72.3699 75.88 72.0019 75.576C71.6499 75.272 71.0099 75.12 70.0819 75.12H67.4659C67.0659 75.12 66.6979 75.096 66.3619 75.048C65.9299 75.624 65.7139 76.312 65.7139 77.112C65.7139 77.992 65.9539 78.664 66.4339 79.128C66.9139 79.592 67.7139 79.824 68.8339 79.824ZM78.2236 57.456L76.3996 57.144V55.848L80.8636 55.32H80.9356L81.5596 55.776L81.5836 61.128L81.4156 63.216C81.9116 62.768 82.5836 62.352 83.4316 61.968C84.2956 61.584 85.1996 61.392 86.1436 61.392C87.1516 61.392 87.9356 61.584 88.4956 61.968C89.0556 62.336 89.4476 62.904 89.6716 63.672C89.8956 64.44 90.0076 65.464 90.0076 66.744V73.344L91.5436 73.56V75H85.2316V73.56L86.6236 73.344V66.744C86.6236 65.912 86.5676 65.264 86.4556 64.8C86.3436 64.336 86.1356 63.992 85.8316 63.768C85.5436 63.544 85.1116 63.432 84.5356 63.432C84.0396 63.432 83.5276 63.552 82.9996 63.792C82.4876 64.016 82.0316 64.288 81.6316 64.608V73.344L83.0956 73.56V75H76.8796V73.56L78.2236 73.368V57.456ZM96.7058 75.216C95.6978 75.216 94.9538 74.984 94.4738 74.52C93.9938 74.056 93.7538 73.32 93.7538 72.312V63.504H92.1938V62.256C92.3218 62.208 92.5538 62.128 92.8898 62.016C93.2258 61.888 93.4818 61.784 93.6578 61.704C93.9298 61.496 94.1618 61.136 94.3538 60.624C94.4978 60.288 94.7618 59.456 95.1458 58.128H97.0658L97.1618 61.656H100.834V63.504H97.1858V70.248C97.1858 71.144 97.2098 71.776 97.2578 72.144C97.3058 72.512 97.4098 72.752 97.5698 72.864C97.7298 72.96 98.0098 73.008 98.4098 73.008C98.8098 73.008 99.2258 72.968 99.6578 72.888C100.09 72.792 100.45 72.68 100.738 72.552L101.194 73.896C100.746 74.232 100.09 74.536 99.2258 74.808C98.3618 75.08 97.5218 75.216 96.7058 75.216ZM104.635 73.032C104.763 73.224 105.051 73.408 105.499 73.584C105.963 73.744 106.427 73.824 106.891 73.824C107.643 73.824 108.203 73.672 108.571 73.368C108.955 73.048 109.147 72.632 109.147 72.12C109.147 71.592 108.915 71.168 108.451 70.848C107.987 70.512 107.203 70.104 106.099 69.624L105.427 69.336C104.323 68.872 103.499 68.312 102.955 67.656C102.411 67 102.139 66.152 102.139 65.112C102.139 64.392 102.355 63.752 102.787 63.192C103.219 62.616 103.827 62.168 104.611 61.848C105.395 61.528 106.299 61.368 107.323 61.368C108.075 61.368 108.715 61.416 109.243 61.512C109.787 61.608 110.355 61.736 110.947 61.896C111.267 62.008 111.507 62.072 111.667 62.088V65.232H109.771L109.219 63.408C109.123 63.248 108.907 63.104 108.571 62.976C108.235 62.848 107.851 62.784 107.419 62.784C106.763 62.784 106.235 62.928 105.835 63.216C105.451 63.488 105.259 63.872 105.259 64.368C105.259 64.816 105.395 65.192 105.667 65.496C105.939 65.784 106.235 66.008 106.555 66.168C106.875 66.328 107.467 66.592 108.331 66.96C109.195 67.328 109.907 67.68 110.467 68.016C111.043 68.352 111.515 68.792 111.883 69.336C112.267 69.864 112.459 70.512 112.459 71.28C112.459 72.464 111.995 73.424 111.067 74.16C110.139 74.896 108.803 75.264 107.059 75.264C106.243 75.264 105.507 75.192 104.851 75.048C104.211 74.904 103.467 74.712 102.619 74.472L102.091 74.304V71.136H104.083L104.635 73.032ZM115.02 57.456L113.292 57.144V55.848L117.708 55.32H117.756L118.404 55.776V67.176L118.332 68.448L123.228 63.312L121.452 63.048V61.68H127.716V63.048L125.772 63.36L122.82 66.192L127.02 73.368L128.34 73.56V75H122.004V73.56L123.228 73.344L120.492 68.28L118.332 70.464L118.38 71.688V73.344L119.892 73.56V75H113.628V73.56L115.02 73.344V57.456ZM130.646 80.976C130.358 80.976 130.046 80.952 129.71 80.904C129.39 80.856 129.158 80.8 129.014 80.736V78.168C129.126 78.232 129.35 78.296 129.686 78.36C130.022 78.424 130.326 78.456 130.598 78.456C131.398 78.456 132.054 78.192 132.566 77.664C133.094 77.136 133.582 76.248 134.03 75H132.734L128.222 63.36L127.142 63.048V61.656H133.742V63.048L131.99 63.336L134.126 69.984L134.99 72.816L135.734 69.984L137.702 63.336L136.19 63.048V61.656H141.398V63.048L140.222 63.336C139.342 66.024 138.47 68.616 137.606 71.112C136.742 73.608 136.238 75.008 136.094 75.312C135.582 76.656 135.094 77.728 134.63 78.528C134.166 79.328 133.614 79.936 132.974 80.352C132.334 80.768 131.558 80.976 130.646 80.976ZM144.024 75.216C143.528 75.216 143.096 75.048 142.728 74.712C142.36 74.36 142.176 73.92 142.176 73.392C142.176 72.8 142.384 72.32 142.8 71.952C143.232 71.568 143.752 71.376 144.36 71.376C144.936 71.376 145.392 71.56 145.728 71.928C146.064 72.28 146.232 72.704 146.232 73.2C146.232 73.824 146.024 74.32 145.608 74.688C145.208 75.04 144.68 75.216 144.024 75.216Z" fill="#7E88A1" fill-opacity="0.5"/>
<g clip-path="url(#clip0)">
<path d="M219.637 109.952C217.431 120.39 213.602 138.816 212.101 139.09C207.611 142.529 208.086 147.308 209.266 152.476C203.878 162.851 220.074 159.227 220.074 157.951L220.58 157.791C220.939 159.003 221.709 159.488 223.524 157.064C224.07 151.411 221.247 146.581 222.697 140.998C224.211 134.835 240.714 119.471 242.863 90.0069C242.863 90.0069 243.754 87.0848 238.95 85.7641C233.21 81.1128 224.275 83.448 217.649 87.5314C219.759 81.6743 222.87 69.6156 223.197 63.3055C227.091 58.9541 231.888 51.8656 230.888 45.1663C228.765 40.3875 220.285 34.1093 215.718 31.8954C215.52 32.7184 214.128 38.1289 212.107 38.1608C214.256 42.3399 214.218 46.1553 208.028 47.5015L206.322 47.5909C206.668 56.0447 209.471 70.0112 208.528 71.485L207.977 72.0975C206.084 70.528 204.013 69.0924 201.941 67.7015C200.203 67.0762 197.137 67.5611 193.179 66.5339L193.558 64.9197C193.16 55.9873 197.509 49.0519 197.688 43.3862C195.976 41.0064 197.156 38.2118 199.26 36.0362L198.009 35.7937C198.009 35.4938 196.989 32.2144 196.637 28.4373C181.512 29.8664 168.286 36.0043 175.496 51.8018C177.664 58.9414 172.404 71.3893 177.811 76.2638C180.621 77.2655 182.955 77.5782 184.937 77.5782L184.944 77.9418C184.931 83.5118 178.17 87.0593 181.743 103.163C181.653 111.993 186.656 113.563 183.61 129.858C183.096 136.762 183.314 143.416 185.726 149.663C189.395 153.503 202.659 154.748 203.198 151.506C204.231 147.123 194.546 140.086 195.655 135.415C197.567 132.57 195.816 126.904 196.021 125.29C198.4 121.289 199.715 114.731 200.504 107.936L200.844 107.974C210.773 110.96 219.285 109.882 219.285 109.882L219.637 109.952Z" fill="white"/>
<path d="M212.107 38.1608C214.128 38.1289 215.52 32.7184 215.718 31.8954C220.939 18.7839 216.777 15.3577 198.997 18.299C198.195 19.071 197.631 20.0345 197.246 21.1127C196.611 22.8609 196.451 24.9026 196.527 26.9124C196.547 27.4292 196.585 27.9396 196.63 28.4437C196.983 32.2208 198.003 35.4939 198.003 35.8001L199.253 36.0426C197.143 38.2182 195.969 41.0128 197.682 43.3927C197.502 49.0583 193.154 55.9937 193.551 64.9261L193.173 66.5403C197.137 67.5675 200.203 67.0826 201.935 67.7079C204.013 69.0988 206.084 70.5344 207.97 72.1039L208.522 71.4914C209.458 70.0176 206.662 56.0511 206.315 47.5973L208.022 47.5079C214.217 46.1553 214.256 42.3463 212.107 38.1608Z" fill="white"/>
<path d="M197.137 21.0745C193.545 18.8414 194.712 26.2616 196.528 26.9124C196.444 24.909 196.611 22.8609 197.246 21.1127L197.137 21.0745Z" fill="white"/>
<path d="M219.23 9.15432C219.23 9.15432 219.359 3.13815 217.631 2.19008C215.903 1.242 214.974 0.762116 214.974 0.762116C214.974 0.762116 212.528 -0.139139 212.211 -0.162548C211.894 -0.185957 209.072 -0.935052 207.685 -0.70096C206.297 -0.466868 200.995 -0.162548 200.501 0.212C200.007 0.586547 198.255 1.89746 198.032 3.66486C197.679 6.47396 197.068 6.91874 196.351 7.5742C195.633 8.22966 191.613 10.278 191.613 10.278C191.613 10.278 190.942 10.793 191.507 12.1273C192.071 13.4616 194.799 14.6087 194.799 14.6087L201.782 16.8325C201.782 16.8325 206.638 17.9796 209.766 18.0498C212.893 18.12 215.28 17.8274 216.326 17.4178C217.372 17.0081 220.629 17.687 223.933 15.4631C227.248 13.2275 219.877 9.66932 219.877 9.66932L219.23 9.15432Z" stroke="black" stroke-width="0.5" stroke-miterlimit="10"/>
<path d="M219.23 9.15429C219.23 9.15429 217.196 10.5003 215.691 10.6759C214.175 10.8515 209.166 11.9985 200.137 8.70952C200.137 8.70952 198.114 7.99554 197.338 6.47394" stroke="black" stroke-width="0.5" stroke-miterlimit="10"/>
<path d="M217.913 2.41246C217.913 2.41246 218.489 3.11474 217.137 3.60633C215.773 4.09792 213.904 3.23178 210.871 3.65315C210.871 3.65315 207.355 3.68826 205.168 3.12644C202.982 2.56462 200.912 1.97939 200.912 1.97939C200.912 1.97939 199.443 1.05472 201.148 0.0247192" stroke="black" stroke-width="0.5" stroke-miterlimit="10"/>
<path d="M209.161 3.34984C204.735 2.90261 201.229 1.74759 201.328 0.770029C201.428 -0.20753 205.096 -0.637446 209.522 -0.190215C213.947 0.257016 217.453 1.41204 217.354 2.38959C217.254 3.36715 213.586 3.79707 209.161 3.34984Z" fill="#C3CDE9"/>
<path d="M219.653 10.0204C219.348 9.78632 219.195 9.70439 218.865 9.89166C218.184 10.2779 216.949 10.7929 215.985 10.9919C213.022 11.6122 209.307 11.6825 204.275 10.5354C201.359 9.86825 198.502 8.29983 197.162 7.4571C196.856 7.25812 196.609 7.83165 196.386 8.11256L191.965 10.6876C191.542 11.2143 190.378 13.2275 202.464 16.5516L202.488 16.5633C202.511 16.575 202.535 16.575 202.558 16.5867C202.993 16.6803 207.379 17.6518 210.248 17.7103C213.269 17.7689 215.585 17.4997 216.596 17.1251C217.607 16.7389 220.629 17.2539 223.756 15.0651C226.096 13.4382 220.653 10.5354 219.853 10.1492L219.653 10.0204Z" fill="#C3CDE9"/>
<path d="M218.866 8.93192C218.783 3.7819 217.984 3.60633 217.984 3.60633C217.984 3.60633 217.631 4.41394 214.492 4.09792C211.353 3.7819 210.8 4.14474 210.8 4.14474C210.8 4.14474 207.708 4.13303 204.722 3.44246C201.183 2.63484 200.595 2.50609 199.937 1.32393C199.866 1.19518 199.678 1.18347 199.596 1.31222L198.937 2.38905C198.773 2.64655 198.667 2.93916 198.643 3.23178L198.573 3.99258C198.549 4.26178 198.502 4.51929 198.432 4.78849L197.961 5.92384C197.844 6.21645 197.891 6.54418 198.091 6.77827L198.455 7.22305C198.491 7.26987 198.538 7.31669 198.596 7.3401C199.008 7.5976 200.96 8.75635 203.393 9.42352C207.061 10.4301 211.835 10.8398 214.163 10.2077C214.363 10.1492 214.574 10.1258 214.786 10.1141L215.915 10.0907C216.361 10.079 216.796 9.97363 217.196 9.76295L218.866 8.93192Z" fill="#C3CDE9"/>
<path d="M208.672 71.0951C208.672 71.0951 211.165 69.8661 207.555 60.9706C203.922 52.0283 207.743 39.7033 207.743 39.7033" stroke="black" stroke-width="0.5" stroke-miterlimit="10"/>
<path d="M208.143 46.2345C208.143 46.2345 214.433 44.5373 214.433 40.4173C214.433 40.4173 214.245 38.4743 212.787 37.1985C211.317 35.9227 209.695 32.3294 209.695 32.3294" stroke="black" stroke-width="0.5" stroke-miterlimit="10"/>
<path d="M207.826 31.0068C207.826 31.0068 203.04 29.8949 198.561 33.7925C195.445 36.508 197.221 41.9506 197.221 41.9506L196.245 47.639C196.245 47.639 191.859 59.847 192.859 64.283" stroke="black" stroke-width="0.5" stroke-miterlimit="10"/>
<path d="M216.103 83.3147L215.703 82.0974C215.703 82.0974 213.446 78.5275 212.916 76.0461C212.387 73.5764 208.943 72.3358 208.943 72.3358L206.285 70.6737C206.285 70.6737 202.805 68.1923 201.712 67.1623C201.524 66.9868 201.289 66.9282 201.042 66.8931C198.902 66.6122 191.483 67.572 183.771 61.5558" stroke="black" stroke-width="0.5" stroke-miterlimit="10"/>
<path d="M184.817 62.3517C184.817 62.3517 185.781 60.0108 186.016 59.6948C186.475 59.0744 189.367 55.2353 188.814 51.2675C188.262 47.2996 186.686 45.3566 186.839 41.4473C186.992 37.5379 187.545 38.0647 187.545 38.0647" stroke="black" stroke-width="0.5" stroke-miterlimit="10"/>
<path d="M210.424 80.6928L211.882 83.8648L211.6 89.5415" stroke="black" stroke-width="0.5" stroke-miterlimit="10"/>
<path d="M207.873 89.2606L208.249 88.6754L208.284 87.2123L207.238 83.0221" stroke="black" stroke-width="0.5" stroke-miterlimit="10"/>
<path d="M204.005 84.4851L204.969 87.4815L204.639 88.6754" stroke="black" stroke-width="0.5" stroke-miterlimit="10"/>
<path d="M198.338 82.9284L193.788 76.1515C193.788 76.1515 191.648 75.7418 185.628 77.7316C185.628 77.7316 183.312 78.3168 177.951 76.2802C177.951 76.2802 177.504 75.894 176.234 76.0227C174.964 76.1632 173.695 71.809 173.612 70.779C173.542 69.8661 174.212 59.5894 174.365 57.3304C174.388 57.0378 174.377 56.7569 174.353 56.4643L173.789 50.6705C173.73 50.0619 173.577 49.465 173.354 48.8914C172.366 46.4218 169.885 38.5914 175.352 32.3294C175.505 32.1538 175.693 32.0017 175.893 31.8846C176.834 31.3228 179.773 29.6959 183.006 29.216L196.245 26.442" stroke="black" stroke-width="0.5" stroke-miterlimit="10"/>
<path d="M197.444 33.9681C197.444 33.9681 195.022 26.559 197.044 16.376" stroke="black" stroke-width="0.5" stroke-miterlimit="10"/>
<path d="M196.245 24.9321C196.245 24.9321 195.187 25.3769 194.787 23.5978C194.387 21.8187 194.199 19.1734 194.34 18.8457C194.481 18.518 195.069 18.4946 195.622 18.7053" stroke="black" stroke-width="0.5" stroke-miterlimit="10"/>
<path d="M201.547 88.9563C201.547 88.9563 202.029 90.5013 200.971 94.2936C200.83 94.7969 200.76 95.3119 200.76 95.8269C200.771 99.1393 200.666 111.441 200.242 113.208C199.748 115.268 195.457 126.856 195.457 126.856C195.457 126.856 195.14 127.663 195.88 130.531C196.045 131.163 196.174 131.795 196.163 132.451C196.127 133.598 195.916 135.459 195.069 137.355C195.069 137.355 195.516 138.49 195.387 139.04" stroke="black" stroke-width="0.5" stroke-miterlimit="10"/>
<path d="M180.678 105.155C176.434 91.7537 183.112 81.3015 183.112 81.3015" stroke="black" stroke-width="0.5" stroke-miterlimit="10"/>
<path d="M184.699 85.761C178.362 99.666 181.349 110.563 181.349 110.563C181.349 110.563 184.088 121.636 183.347 128.319C183.347 128.319 183.383 129.759 182.348 131.584C181.313 133.41 181.913 136.044 181.913 136.044C181.913 136.044 182.665 138.069 182.489 139.122C182.313 140.176 183.136 148.65 183.136 148.65C183.136 148.65 183.23 150.382 184.57 152.126" stroke="black" stroke-width="0.5" stroke-miterlimit="10"/>
<path d="M203.04 154.034C203.04 154.034 203.946 151.201 200.783 148.065C197.62 144.928 196.586 143.371 196.586 143.371" stroke="black" stroke-width="0.5" stroke-miterlimit="10"/>
<path d="M198.796 150.733C198.796 150.733 198.349 154.432 199.29 155.427" stroke="black" stroke-width="0.5" stroke-miterlimit="10"/>
<path d="M195.187 151.155C195.187 151.155 195.457 151.904 195.445 152.501C195.434 153.098 195.34 153.835 195.34 153.835C195.34 153.835 195.422 154.315 195.998 154.725" stroke="black" stroke-width="0.5" stroke-miterlimit="10"/>
<path d="M192.024 150.768C192.024 150.768 191.777 153.566 191.824 153.659C191.871 153.753 191.789 153.975 192.412 154.303" stroke="black" stroke-width="0.5" stroke-miterlimit="10"/>
<path d="M189.273 154.291C189.273 154.291 188.179 153.203 188.003 150.558" stroke="black" stroke-width="0.5" stroke-miterlimit="10"/>
<path d="M222.087 103.716C222.087 103.716 218.395 114.812 218.043 123.719C217.69 132.626 213.704 137.484 213.704 137.484C213.704 137.484 212.423 138.104 212.446 141.159L209.613 144.694C209.613 144.694 207.508 146.461 208.143 148.708C208.555 150.206 209.084 151.939 209.401 152.945C209.613 153.624 209.624 154.35 209.448 155.04C209.284 155.684 208.99 156.586 208.461 157.826C208.461 157.826 208.261 159.067 208.555 159.804C208.849 160.542 209.507 162.145 209.507 162.145" stroke="black" stroke-width="0.5" stroke-miterlimit="10"/>
<path d="M223.627 143.149L223.18 152.606C223.169 152.934 223.263 153.25 223.474 153.496C224.203 154.385 225.814 156.843 224.509 159.804" stroke="black" stroke-width="0.5" stroke-miterlimit="10"/>
<path d="M220.841 156.691C220.841 156.691 221.652 158.376 220.841 160.647" stroke="black" stroke-width="0.5" stroke-miterlimit="10"/>
<path d="M217.972 156.691L217.525 160.858" stroke="black" stroke-width="0.5" stroke-miterlimit="10"/>
<path d="M214.198 155.953C214.198 155.953 215.28 157.826 213.963 160.366L214.268 161.607" stroke="black" stroke-width="0.5" stroke-miterlimit="10"/>
<path d="M223.086 156.878C223.086 156.878 223.439 157.615 223.192 158.177" stroke="black" stroke-width="0.5" stroke-miterlimit="10"/>
<path d="M225.402 139.111C225.402 139.111 243.908 115.748 244.931 90.2906C244.931 90.2906 245.872 87.2591 240.804 85.8897C240.804 85.8897 238.759 85.7843 237.63 84.5437C236.489 83.303 231.763 81.9686 229.188 83.0572C226.613 84.1457 216.737 87.8209 214.633 90.2906" stroke="black" stroke-width="0.5" stroke-miterlimit="10"/>
<path d="M220.03 82.0506C220.03 82.0506 223.51 72.8625 222.898 70.5918C222.287 68.3211 224.497 63.8499 224.497 63.8499" stroke="black" stroke-width="0.5" stroke-miterlimit="10"/>
<path d="M224.156 62.6093C224.156 62.6093 226.802 58.6531 228.107 57.9157C229.412 57.1783 231.551 51.1622 231.669 50.4482C231.787 49.7342 232.621 45.1928 232.28 43.8234" stroke="black" stroke-width="0.5" stroke-miterlimit="10"/>
<path d="M212.152 36.5197C212.152 36.5197 213.587 36.2856 214.198 35.5833C214.809 34.881 216.279 30.0587 216.279 30.0587L218.748 31.8495C218.748 31.8495 223.086 33.5701 224.873 35.08C226.66 36.5899 230.823 41.7282 230.823 41.7282" stroke="black" stroke-width="0.5" stroke-miterlimit="10"/>
<path d="M216.267 30.0587C216.267 30.0587 218.231 24.3001 218.054 23.6329C217.89 22.9657 218.301 20.1683 218.301 20.1683" stroke="black" stroke-width="0.5" stroke-miterlimit="10"/>
<path d="M218.489 18.5648C218.489 18.5648 218.654 18.0264 218.842 17.1837" stroke="black" stroke-width="0.5" stroke-miterlimit="10"/>
<path d="M213.21 20.9525C212.775 20.9525 212.422 20.6014 212.422 20.1683C212.422 19.7352 212.775 19.3841 213.21 19.3841C213.645 19.3841 213.998 19.7352 213.998 20.1683C213.998 20.6014 213.645 20.9525 213.21 20.9525Z" stroke="black" stroke-width="0.5" stroke-miterlimit="10"/>
<path d="M204.157 20.3088C203.722 20.3088 203.37 19.9577 203.37 19.5246C203.37 19.0915 203.722 18.7404 204.157 18.7404C204.592 18.7404 204.945 19.0915 204.945 19.5246C204.945 19.9577 204.592 20.3088 204.157 20.3088Z" stroke="black" stroke-width="0.5" stroke-miterlimit="10"/>
<path d="M215.515 19.9459C215.515 19.9459 214.057 18.1902 211.576 19.1149" stroke="black" stroke-width="0.5" stroke-miterlimit="10"/>
<path d="M206.144 19.033C206.144 19.033 204.945 17.5348 202.135 18.4946" stroke="black" stroke-width="0.5" stroke-miterlimit="10"/>
<path d="M210.33 25.3184C210.33 25.3184 209.907 26.1845 208.366 26.1962" stroke="black" stroke-width="0.5" stroke-miterlimit="10"/>
<path d="M211.494 30.562C211.494 30.562 211.882 30.9834 208.907 31.2175" stroke="black" stroke-width="0.5" stroke-miterlimit="10"/>
</g>
<defs>
<clipPath id="clip0">
<rect width="73" height="163" fill="white" transform="matrix(-1 0 0 1 245 -1)"/>
</clipPath>
</defs>
</svg>
